<mxfile host="app.diagrams.net" agent="Mozilla/5.0 (Windows NT 10.0; Win64; x64) AppleWebKit/537.36 (KHTML, like Gecko) Chrome/134.0.0.0 Safari/537.36" version="26.1.0">
  <diagram id="DFD-Level1" name="Page-1">
    <mxGraphModel dx="1434" dy="738" grid="0" gridSize="10" guides="1" tooltips="1" connect="1" arrows="1" fold="1" page="1" pageScale="1" pageWidth="827" pageHeight="1169" math="0" shadow="0">
      <root>
        <mxCell id="0" />
        <mxCell id="1" parent="0" />
        <mxCell id="user" value="Admin" style="shape=rectangle;fillColor=default;fontStyle=1" parent="1" vertex="1">
          <mxGeometry x="79" y="392" width="90" height="70" as="geometry" />
        </mxCell>
        <mxCell id="2K1jJr3Cba77KBvKs24k-25" style="edgeStyle=orthogonalEdgeStyle;rounded=0;orthogonalLoop=1;jettySize=auto;html=1;entryX=0.5;entryY=0;entryDx=0;entryDy=0;" parent="1" source="login" target="user" edge="1">
          <mxGeometry relative="1" as="geometry" />
        </mxCell>
        <mxCell id="2K1jJr3Cba77KBvKs24k-35" style="edgeStyle=orthogonalEdgeStyle;rounded=0;orthogonalLoop=1;jettySize=auto;html=1;exitX=1;exitY=0.5;exitDx=0;exitDy=0;" parent="1" edge="1">
          <mxGeometry relative="1" as="geometry">
            <mxPoint x="680" y="71" as="targetPoint" />
            <mxPoint x="459" y="71" as="sourcePoint" />
          </mxGeometry>
        </mxCell>
        <mxCell id="login" value="Admin Login" style="ellipse;fillColor=default;fontStyle=1" parent="1" vertex="1">
          <mxGeometry x="369" y="40" width="90" height="80" as="geometry" />
        </mxCell>
        <mxCell id="2K1jJr3Cba77KBvKs24k-28" style="edgeStyle=orthogonalEdgeStyle;rounded=0;orthogonalLoop=1;jettySize=auto;html=1;exitX=0;exitY=0.5;exitDx=0;exitDy=0;endArrow=blockThin;startFill=0;endFill=1;" parent="1" source="registration" edge="1">
          <mxGeometry relative="1" as="geometry">
            <mxPoint x="125" y="180" as="targetPoint" />
          </mxGeometry>
        </mxCell>
        <mxCell id="registration" value="Admin&#xa;Dashboard" style="ellipse;fillColor=default;fontStyle=1" parent="1" vertex="1">
          <mxGeometry x="369" y="140" width="90" height="80" as="geometry" />
        </mxCell>
        <mxCell id="2K1jJr3Cba77KBvKs24k-29" style="edgeStyle=orthogonalEdgeStyle;rounded=0;orthogonalLoop=1;jettySize=auto;html=1;exitX=0;exitY=0.5;exitDx=0;exitDy=0;endArrow=blockThin;startFill=0;endFill=1;" parent="1" source="searchVehicle" edge="1">
          <mxGeometry relative="1" as="geometry">
            <mxPoint x="125" y="280" as="targetPoint" />
          </mxGeometry>
        </mxCell>
        <mxCell id="searchVehicle" value="Manage&#xa;Brands" style="ellipse;fillColor=default;fontStyle=1" parent="1" vertex="1">
          <mxGeometry x="364" y="240" width="100" height="80" as="geometry" />
        </mxCell>
        <mxCell id="selectVehicle" value="Manage&#xa;Vehicle" style="ellipse;fillColor=default;fontStyle=1" parent="1" vertex="1">
          <mxGeometry x="364" y="340" width="100" height="80" as="geometry" />
        </mxCell>
        <mxCell id="orderVehicle" value="ManageÂ &#xa;Booking" style="ellipse;fillColor=default;fontStyle=1" parent="1" vertex="1">
          <mxGeometry x="364" y="440" width="100" height="80" as="geometry" />
        </mxCell>
        <mxCell id="payment" value="View&#xa;Users" style="ellipse;fillColor=default;fontStyle=1" parent="1" vertex="1">
          <mxGeometry x="364" y="540" width="100" height="80" as="geometry" />
        </mxCell>
        <mxCell id="logout" value="Manage&#xa;Contact&#xa;Queries" style="ellipse;fillColor=default;fontStyle=1" parent="1" vertex="1">
          <mxGeometry x="364" y="640" width="100" height="80" as="geometry" />
        </mxCell>
        <mxCell id="2K1jJr3Cba77KBvKs24k-2" value="&lt;b&gt;User Data&lt;/b&gt;" style="text;html=1;align=center;verticalAlign=middle;whiteSpace=wrap;rounded=0;fillColor=default;" parent="1" vertex="1">
          <mxGeometry x="701" y="65" width="60" height="30" as="geometry" />
        </mxCell>
        <mxCell id="2K1jJr3Cba77KBvKs24k-10" value="&lt;b&gt;Dashboard&lt;/b&gt;&lt;div&gt;&lt;b&gt;Data&lt;/b&gt;&lt;/div&gt;" style="text;html=1;align=center;verticalAlign=middle;whiteSpace=wrap;rounded=0;fillColor=default;" parent="1" vertex="1">
          <mxGeometry x="701" y="165" width="60" height="30" as="geometry" />
        </mxCell>
        <mxCell id="2K1jJr3Cba77KBvKs24k-11" value="&lt;b&gt;Booking Information&lt;/b&gt;" style="text;html=1;align=center;verticalAlign=middle;whiteSpace=wrap;rounded=0;fillColor=default;" parent="1" vertex="1">
          <mxGeometry x="701" y="465" width="60" height="30" as="geometry" />
        </mxCell>
        <mxCell id="2K1jJr3Cba77KBvKs24k-12" value="&lt;b&gt;Brand Information&lt;/b&gt;" style="text;html=1;align=center;verticalAlign=middle;whiteSpace=wrap;rounded=0;fillColor=default;" parent="1" vertex="1">
          <mxGeometry x="701" y="265" width="60" height="30" as="geometry" />
        </mxCell>
        <mxCell id="2K1jJr3Cba77KBvKs24k-13" value="&lt;b&gt;Vehicle Information&lt;/b&gt;" style="text;html=1;align=center;verticalAlign=middle;whiteSpace=wrap;rounded=0;fillColor=default;" parent="1" vertex="1">
          <mxGeometry x="701" y="365" width="60" height="30" as="geometry" />
        </mxCell>
        <mxCell id="2K1jJr3Cba77KBvKs24k-14" value="&lt;b&gt;Users Information&lt;/b&gt;" style="text;html=1;align=center;verticalAlign=middle;whiteSpace=wrap;rounded=0;fillColor=default;" parent="1" vertex="1">
          <mxGeometry x="701" y="565" width="60" height="30" as="geometry" />
        </mxCell>
        <mxCell id="2K1jJr3Cba77KBvKs24k-15" value="&lt;b&gt;Contact&lt;/b&gt;&lt;div&gt;&lt;b&gt;Queries&lt;/b&gt;&lt;/div&gt;" style="text;html=1;align=center;verticalAlign=middle;whiteSpace=wrap;rounded=0;fillColor=default;" parent="1" vertex="1">
          <mxGeometry x="701" y="665" width="60" height="30" as="geometry" />
        </mxCell>
        <mxCell id="2K1jJr3Cba77KBvKs24k-18" value="" style="shape=link;html=1;rounded=0;width=33;" parent="1" edge="1">
          <mxGeometry width="100" relative="1" as="geometry">
            <mxPoint x="681" y="79.5" as="sourcePoint" />
            <mxPoint x="781" y="79.5" as="targetPoint" />
          </mxGeometry>
        </mxCell>
        <mxCell id="2K1jJr3Cba77KBvKs24k-19" value="" style="shape=link;html=1;rounded=0;width=33;" parent="1" edge="1">
          <mxGeometry width="100" relative="1" as="geometry">
            <mxPoint x="681" y="179.5" as="sourcePoint" />
            <mxPoint x="781" y="179.5" as="targetPoint" />
          </mxGeometry>
        </mxCell>
        <mxCell id="2K1jJr3Cba77KBvKs24k-31" style="edgeStyle=orthogonalEdgeStyle;rounded=0;orthogonalLoop=1;jettySize=auto;html=1;exitX=0;exitY=0.5;exitDx=0;exitDy=0;endArrow=block;startFill=0;endFill=1;" parent="1" edge="1">
          <mxGeometry relative="1" as="geometry">
            <mxPoint x="124" y="379.5" as="targetPoint" />
            <mxPoint x="364" y="379.5" as="sourcePoint" />
          </mxGeometry>
        </mxCell>
        <mxCell id="2K1jJr3Cba77KBvKs24k-33" style="edgeStyle=orthogonalEdgeStyle;rounded=0;orthogonalLoop=1;jettySize=auto;html=1;exitX=0;exitY=0.5;exitDx=0;exitDy=0;endArrow=blockThin;startFill=0;endFill=1;" parent="1" edge="1">
          <mxGeometry relative="1" as="geometry">
            <mxPoint x="125" y="579.5" as="targetPoint" />
            <mxPoint x="364" y="579.5" as="sourcePoint" />
          </mxGeometry>
        </mxCell>
        <mxCell id="2K1jJr3Cba77KBvKs24k-34" style="edgeStyle=orthogonalEdgeStyle;rounded=0;orthogonalLoop=1;jettySize=auto;html=1;exitX=0;exitY=0.5;exitDx=0;exitDy=0;endArrow=blockThin;startFill=0;endFill=1;" parent="1" edge="1">
          <mxGeometry relative="1" as="geometry">
            <mxPoint x="125" y="479.5" as="targetPoint" />
            <mxPoint x="364" y="479.5" as="sourcePoint" />
          </mxGeometry>
        </mxCell>
        <mxCell id="2K1jJr3Cba77KBvKs24k-36" style="edgeStyle=orthogonalEdgeStyle;rounded=0;orthogonalLoop=1;jettySize=auto;html=1;exitX=1;exitY=0.5;exitDx=0;exitDy=0;" parent="1" edge="1">
          <mxGeometry relative="1" as="geometry">
            <mxPoint x="680" y="170" as="targetPoint" />
            <mxPoint x="459" y="170" as="sourcePoint" />
          </mxGeometry>
        </mxCell>
        <mxCell id="2K1jJr3Cba77KBvKs24k-37" style="edgeStyle=orthogonalEdgeStyle;rounded=0;orthogonalLoop=1;jettySize=auto;html=1;exitX=1;exitY=0.5;exitDx=0;exitDy=0;" parent="1" edge="1">
          <mxGeometry relative="1" as="geometry">
            <mxPoint x="680" y="272" as="targetPoint" />
            <mxPoint x="464" y="272" as="sourcePoint" />
          </mxGeometry>
        </mxCell>
        <mxCell id="2K1jJr3Cba77KBvKs24k-38" style="edgeStyle=orthogonalEdgeStyle;rounded=0;orthogonalLoop=1;jettySize=auto;html=1;exitX=1;exitY=0.5;exitDx=0;exitDy=0;" parent="1" edge="1">
          <mxGeometry relative="1" as="geometry">
            <mxPoint x="680" y="372" as="targetPoint" />
            <mxPoint x="464" y="372" as="sourcePoint" />
          </mxGeometry>
        </mxCell>
        <mxCell id="2K1jJr3Cba77KBvKs24k-39" style="edgeStyle=orthogonalEdgeStyle;rounded=0;orthogonalLoop=1;jettySize=auto;html=1;exitX=1;exitY=0.5;exitDx=0;exitDy=0;" parent="1" edge="1">
          <mxGeometry relative="1" as="geometry">
            <mxPoint x="680" y="469" as="targetPoint" />
            <mxPoint x="464" y="469" as="sourcePoint" />
          </mxGeometry>
        </mxCell>
        <mxCell id="2K1jJr3Cba77KBvKs24k-40" style="edgeStyle=orthogonalEdgeStyle;rounded=0;orthogonalLoop=1;jettySize=auto;html=1;exitX=1;exitY=0.5;exitDx=0;exitDy=0;" parent="1" edge="1">
          <mxGeometry relative="1" as="geometry">
            <mxPoint x="678" y="570" as="targetPoint" />
            <mxPoint x="462" y="570" as="sourcePoint" />
          </mxGeometry>
        </mxCell>
        <mxCell id="2K1jJr3Cba77KBvKs24k-41" style="edgeStyle=orthogonalEdgeStyle;rounded=0;orthogonalLoop=1;jettySize=auto;html=1;exitX=1;exitY=0.5;exitDx=0;exitDy=0;" parent="1" edge="1">
          <mxGeometry relative="1" as="geometry">
            <mxPoint x="677" y="671" as="targetPoint" />
            <mxPoint x="461" y="671" as="sourcePoint" />
          </mxGeometry>
        </mxCell>
        <mxCell id="2K1jJr3Cba77KBvKs24k-42" value="&lt;b&gt;Request for login&lt;/b&gt;" style="text;html=1;align=center;verticalAlign=middle;whiteSpace=wrap;rounded=0;fillColor=none;" parent="1" vertex="1">
          <mxGeometry x="471" y="46" width="187" height="30" as="geometry" />
        </mxCell>
        <mxCell id="2K1jJr3Cba77KBvKs24k-45" value="&lt;b&gt;Acknowledgement&lt;/b&gt;" style="text;html=1;align=center;verticalAlign=middle;whiteSpace=wrap;rounded=0;fillColor=none;" parent="1" vertex="1">
          <mxGeometry x="471" y="486" width="187" height="30" as="geometry" />
        </mxCell>
        <mxCell id="2K1jJr3Cba77KBvKs24k-52" value="&lt;b&gt;Request for brand&lt;/b&gt;" style="text;html=1;align=center;verticalAlign=middle;whiteSpace=wrap;rounded=0;fillColor=none;" parent="1" vertex="1">
          <mxGeometry x="471" y="248" width="187" height="30" as="geometry" />
        </mxCell>
        <mxCell id="2K1jJr3Cba77KBvKs24k-53" value="&lt;b&gt;Request for dashboard&lt;/b&gt;" style="text;html=1;align=center;verticalAlign=middle;whiteSpace=wrap;rounded=0;fillColor=none;" parent="1" vertex="1">
          <mxGeometry x="469" y="146" width="187" height="30" as="geometry" />
        </mxCell>
        <mxCell id="2K1jJr3Cba77KBvKs24k-54" value="&lt;b&gt;Request for vehicle&lt;/b&gt;" style="text;html=1;align=center;verticalAlign=middle;whiteSpace=wrap;rounded=0;fillColor=none;" parent="1" vertex="1">
          <mxGeometry x="471" y="347" width="187" height="30" as="geometry" />
        </mxCell>
        <mxCell id="2K1jJr3Cba77KBvKs24k-55" value="&lt;b&gt;Request for booking&lt;/b&gt;" style="text;html=1;align=center;verticalAlign=middle;whiteSpace=wrap;rounded=0;fillColor=none;" parent="1" vertex="1">
          <mxGeometry x="471" y="445" width="187" height="30" as="geometry" />
        </mxCell>
        <mxCell id="2K1jJr3Cba77KBvKs24k-56" value="&lt;b&gt;Request for users&lt;/b&gt;" style="text;html=1;align=center;verticalAlign=middle;whiteSpace=wrap;rounded=0;fillColor=none;" parent="1" vertex="1">
          <mxGeometry x="469" y="544" width="187" height="30" as="geometry" />
        </mxCell>
        <mxCell id="2K1jJr3Cba77KBvKs24k-57" value="&lt;b&gt;Request for contact queries&lt;/b&gt;" style="text;html=1;align=center;verticalAlign=middle;whiteSpace=wrap;rounded=0;fillColor=none;" parent="1" vertex="1">
          <mxGeometry x="471" y="648" width="187" height="30" as="geometry" />
        </mxCell>
        <mxCell id="2K1jJr3Cba77KBvKs24k-61" value="" style="shape=link;html=1;rounded=0;width=33;" parent="1" edge="1">
          <mxGeometry width="100" relative="1" as="geometry">
            <mxPoint x="681" y="279.5" as="sourcePoint" />
            <mxPoint x="781" y="279.5" as="targetPoint" />
          </mxGeometry>
        </mxCell>
        <mxCell id="2K1jJr3Cba77KBvKs24k-62" value="" style="shape=link;html=1;rounded=0;width=33;" parent="1" edge="1">
          <mxGeometry width="100" relative="1" as="geometry">
            <mxPoint x="681" y="379.5" as="sourcePoint" />
            <mxPoint x="781" y="379.5" as="targetPoint" />
          </mxGeometry>
        </mxCell>
        <mxCell id="2K1jJr3Cba77KBvKs24k-63" value="" style="shape=link;html=1;rounded=0;width=33;" parent="1" edge="1">
          <mxGeometry width="100" relative="1" as="geometry">
            <mxPoint x="681" y="479.5" as="sourcePoint" />
            <mxPoint x="781" y="479.5" as="targetPoint" />
          </mxGeometry>
        </mxCell>
        <mxCell id="2K1jJr3Cba77KBvKs24k-64" value="" style="shape=link;html=1;rounded=0;width=33;" parent="1" edge="1">
          <mxGeometry width="100" relative="1" as="geometry">
            <mxPoint x="681" y="579.5" as="sourcePoint" />
            <mxPoint x="781" y="579.5" as="targetPoint" />
          </mxGeometry>
        </mxCell>
        <mxCell id="2K1jJr3Cba77KBvKs24k-65" value="" style="shape=link;html=1;rounded=0;width=33;" parent="1" edge="1">
          <mxGeometry width="100" relative="1" as="geometry">
            <mxPoint x="681" y="679.5" as="sourcePoint" />
            <mxPoint x="781" y="679.5" as="targetPoint" />
          </mxGeometry>
        </mxCell>
        <mxCell id="2K1jJr3Cba77KBvKs24k-67" value="&lt;b&gt;Acknowledgement&lt;/b&gt;" style="text;html=1;align=center;verticalAlign=middle;whiteSpace=wrap;rounded=0;fillColor=none;" parent="1" vertex="1">
          <mxGeometry x="469" y="381" width="187" height="30" as="geometry" />
        </mxCell>
        <mxCell id="2K1jJr3Cba77KBvKs24k-68" value="&lt;b&gt;Acknowledgement&lt;/b&gt;" style="text;html=1;align=center;verticalAlign=middle;whiteSpace=wrap;rounded=0;fillColor=none;" parent="1" vertex="1">
          <mxGeometry x="471" y="282" width="187" height="30" as="geometry" />
        </mxCell>
        <mxCell id="2K1jJr3Cba77KBvKs24k-69" value="&lt;b&gt;Acknowledgement&lt;/b&gt;" style="text;html=1;align=center;verticalAlign=middle;whiteSpace=wrap;rounded=0;fillColor=none;" parent="1" vertex="1">
          <mxGeometry x="471" y="84" width="187" height="30" as="geometry" />
        </mxCell>
        <mxCell id="2K1jJr3Cba77KBvKs24k-70" value="&lt;b&gt;Acknowledgement&lt;/b&gt;" style="text;html=1;align=center;verticalAlign=middle;whiteSpace=wrap;rounded=0;fillColor=none;" parent="1" vertex="1">
          <mxGeometry x="471" y="179" width="187" height="30" as="geometry" />
        </mxCell>
        <mxCell id="2K1jJr3Cba77KBvKs24k-71" value="&lt;b&gt;Acknowledgement&lt;/b&gt;" style="text;html=1;align=center;verticalAlign=middle;whiteSpace=wrap;rounded=0;fillColor=none;" parent="1" vertex="1">
          <mxGeometry x="471" y="581" width="187" height="30" as="geometry" />
        </mxCell>
        <mxCell id="2K1jJr3Cba77KBvKs24k-72" value="&lt;b&gt;Acknowledgement&lt;/b&gt;" style="text;html=1;align=center;verticalAlign=middle;whiteSpace=wrap;rounded=0;fillColor=none;" parent="1" vertex="1">
          <mxGeometry x="469" y="680" width="187" height="30" as="geometry" />
        </mxCell>
        <mxCell id="u_FxdKukYUVRdnGVj5pk-4" style="edgeStyle=orthogonalEdgeStyle;rounded=0;orthogonalLoop=1;jettySize=auto;html=1;exitX=0;exitY=0.5;exitDx=0;exitDy=0;entryX=0.5;entryY=1;entryDx=0;entryDy=0;" parent="1" source="u_FxdKukYUVRdnGVj5pk-2" target="user" edge="1">
          <mxGeometry relative="1" as="geometry" />
        </mxCell>
        <mxCell id="u_FxdKukYUVRdnGVj5pk-2" value="Logout" style="ellipse;fillColor=default;fontStyle=1" parent="1" vertex="1">
          <mxGeometry x="369" y="740" width="90" height="80" as="geometry" />
        </mxCell>
        <mxCell id="u_FxdKukYUVRdnGVj5pk-3" style="edgeStyle=orthogonalEdgeStyle;rounded=0;orthogonalLoop=1;jettySize=auto;html=1;exitX=0;exitY=0.5;exitDx=0;exitDy=0;endArrow=blockThin;startFill=0;endFill=1;" parent="1" edge="1">
          <mxGeometry relative="1" as="geometry">
            <mxPoint x="125" y="679.5" as="targetPoint" />
            <mxPoint x="364" y="679.5" as="sourcePoint" />
          </mxGeometry>
        </mxCell>
        <mxCell id="u_FxdKukYUVRdnGVj5pk-6" style="edgeStyle=orthogonalEdgeStyle;rounded=0;orthogonalLoop=1;jettySize=auto;html=1;exitX=1;exitY=0.5;exitDx=0;exitDy=0;" parent="1" edge="1">
          <mxGeometry relative="1" as="geometry">
            <mxPoint x="675" y="772" as="targetPoint" />
            <mxPoint x="459" y="772" as="sourcePoint" />
          </mxGeometry>
        </mxCell>
        <mxCell id="u_FxdKukYUVRdnGVj5pk-9" value="&lt;b&gt;Request for logout&lt;/b&gt;" style="text;html=1;align=center;verticalAlign=middle;whiteSpace=wrap;rounded=0;fillColor=none;" parent="1" vertex="1">
          <mxGeometry x="471" y="748" width="187" height="30" as="geometry" />
        </mxCell>
        <mxCell id="u_FxdKukYUVRdnGVj5pk-10" value="&lt;b&gt;Acknowledgement&lt;/b&gt;" style="text;html=1;align=center;verticalAlign=middle;whiteSpace=wrap;rounded=0;fillColor=none;" parent="1" vertex="1">
          <mxGeometry x="471" y="785" width="187" height="30" as="geometry" />
        </mxCell>
        <mxCell id="u_FxdKukYUVRdnGVj5pk-11" value="&lt;b&gt;User Data&lt;/b&gt;" style="text;html=1;align=center;verticalAlign=middle;whiteSpace=wrap;rounded=0;fillColor=default;" parent="1" vertex="1">
          <mxGeometry x="701" y="765" width="60" height="30" as="geometry" />
        </mxCell>
        <mxCell id="u_FxdKukYUVRdnGVj5pk-12" value="" style="shape=link;html=1;rounded=0;width=33;" parent="1" edge="1">
          <mxGeometry width="100" relative="1" as="geometry">
            <mxPoint x="681" y="781" as="sourcePoint" />
            <mxPoint x="781" y="781" as="targetPoint" />
          </mxGeometry>
        </mxCell>
        <mxCell id="2xO3vnPsuul5l9g4eOfR-1" style="edgeStyle=orthogonalEdgeStyle;rounded=0;orthogonalLoop=1;jettySize=auto;html=1;exitX=1;exitY=0.5;exitDx=0;exitDy=0;endArrow=none;startFill=1;startArrow=classic;" edge="1" parent="1">
          <mxGeometry relative="1" as="geometry">
            <mxPoint x="680" y="89" as="targetPoint" />
            <mxPoint x="459" y="89" as="sourcePoint" />
          </mxGeometry>
        </mxCell>
        <mxCell id="2xO3vnPsuul5l9g4eOfR-2" style="edgeStyle=orthogonalEdgeStyle;rounded=0;orthogonalLoop=1;jettySize=auto;html=1;exitX=1;exitY=0.5;exitDx=0;exitDy=0;endArrow=none;startFill=1;startArrow=classic;" edge="1" parent="1">
          <mxGeometry relative="1" as="geometry">
            <mxPoint x="680" y="790" as="targetPoint" />
            <mxPoint x="459" y="790" as="sourcePoint" />
          </mxGeometry>
        </mxCell>
        <mxCell id="2xO3vnPsuul5l9g4eOfR-3" style="edgeStyle=orthogonalEdgeStyle;rounded=0;orthogonalLoop=1;jettySize=auto;html=1;exitX=1;exitY=0.5;exitDx=0;exitDy=0;endArrow=none;startFill=1;startArrow=classic;" edge="1" parent="1">
          <mxGeometry relative="1" as="geometry">
            <mxPoint x="680" y="687" as="targetPoint" />
            <mxPoint x="464" y="687" as="sourcePoint" />
          </mxGeometry>
        </mxCell>
        <mxCell id="2xO3vnPsuul5l9g4eOfR-4" style="edgeStyle=orthogonalEdgeStyle;rounded=0;orthogonalLoop=1;jettySize=auto;html=1;exitX=1;exitY=0.5;exitDx=0;exitDy=0;endArrow=none;startFill=1;startArrow=classic;" edge="1" parent="1">
          <mxGeometry relative="1" as="geometry">
            <mxPoint x="680" y="388" as="targetPoint" />
            <mxPoint x="464" y="388" as="sourcePoint" />
          </mxGeometry>
        </mxCell>
        <mxCell id="2xO3vnPsuul5l9g4eOfR-5" style="edgeStyle=orthogonalEdgeStyle;rounded=0;orthogonalLoop=1;jettySize=auto;html=1;exitX=1;exitY=0.5;exitDx=0;exitDy=0;endArrow=none;startFill=1;startArrow=classic;" edge="1" parent="1">
          <mxGeometry relative="1" as="geometry">
            <mxPoint x="680" y="489" as="targetPoint" />
            <mxPoint x="464" y="489" as="sourcePoint" />
          </mxGeometry>
        </mxCell>
        <mxCell id="2xO3vnPsuul5l9g4eOfR-6" style="edgeStyle=orthogonalEdgeStyle;rounded=0;orthogonalLoop=1;jettySize=auto;html=1;exitX=1;exitY=0.5;exitDx=0;exitDy=0;endArrow=none;startFill=1;startArrow=classic;" edge="1" parent="1">
          <mxGeometry relative="1" as="geometry">
            <mxPoint x="680" y="588" as="targetPoint" />
            <mxPoint x="464" y="588" as="sourcePoint" />
          </mxGeometry>
        </mxCell>
        <mxCell id="2xO3vnPsuul5l9g4eOfR-7" style="edgeStyle=orthogonalEdgeStyle;rounded=0;orthogonalLoop=1;jettySize=auto;html=1;exitX=1;exitY=0.5;exitDx=0;exitDy=0;endArrow=none;startFill=1;startArrow=classic;" edge="1" parent="1">
          <mxGeometry relative="1" as="geometry">
            <mxPoint x="680" y="188" as="targetPoint" />
            <mxPoint x="459" y="188" as="sourcePoint" />
          </mxGeometry>
        </mxCell>
        <mxCell id="2xO3vnPsuul5l9g4eOfR-8" style="edgeStyle=orthogonalEdgeStyle;rounded=0;orthogonalLoop=1;jettySize=auto;html=1;exitX=1;exitY=0.5;exitDx=0;exitDy=0;endArrow=none;startFill=1;startArrow=classic;" edge="1" parent="1">
          <mxGeometry relative="1" as="geometry">
            <mxPoint x="680" y="287" as="targetPoint" />
            <mxPoint x="464" y="287" as="sourcePoint" />
          </mxGeometry>
        </mxCell>
      </root>
    </mxGraphModel>
  </diagram>
</mxfile>
